{"title":"Tomorrowland.2015.BRRip.480p.x264.AAC-VYTO [P2PDL]","uid":12482903,"size":504768027,"categoryP":"video","categoryS":"movies","magnet":"?xt=urn:btih:d7bf823d76dd23ec00bec2b5d35bdf9bdf2dae9b&amp;dn=Tomorrowland.2015.BRRip.480p.x264.AAC-VYTO+%5BP2PDL%5D&amp;tr=udp%3A%2F%2Ftracker.leechers-paradise.org%3A6969&amp;tr=udp%3A%2F%2Fzer0day.ch%3A1337&amp;tr=udp%3A%2F%2Fopen.demonii.com%3A1337&amp;tr=udp%3A%2F%2Ftracker.coppersurfer.tk%3A6969&amp;tr=udp%3A%2F%2Fexodus.desync.com%3A6969","seeders":1,"leechers":3,"uploader":"VYTOP2PDL","files":7,"time":1443076846,"description":"____    ____ ____    ____ .___________.  ______   \r\n     /   /      /   / |           | /  __    \r\n    /   /      /   /  `---|  |----`|  |  |  | \r\n        /     _    _/       |  |     |  |  |  | \r\n       /        |  |         |  |     |  `--'  | \r\n    __/         |__|         |__|      ______/  \r\n                                                  \r\nPresenting Small Encodes with quality for years!\r\n                                                                                                   \r\n                                                                                                   \r\n\r\nTomorrowland.2015.BRRip.480p.x264.AAC-VYTO\r\n\r\n\r\nGenre: Action, Adventure, Family \nhttp://www.imdb.com/title/tt1964418/\r\n\r\n\r\nGeneral\r\nFormat                         : MPEG-4\r\nFile size                      : 476 MiB\r\nDuration                       : 2h 10mn\r\nOverall bit rate               : 512 Kbps\r\n\r\nVideo\r\nFormat                         : AVC\r\nBit rate                       : 477 Kbps\r\nWidth                          : 720 pixels\r\nHeight                         : 336 pixels\r\nDisplay aspect ratio           : 2.143\r\nFrame rate mode                : Constant\r\nFrame rate                     : 23.976 fps\r\nBit depth                      : 8 bits\r\nStream size                    : 444 MiB (93%)\r\nWriting library                : x264 core 148 r2597 \r\n\r\nAudio\r\nFormat                         : AAC\r\nBit rate mode                  : Variable\r\nBit rate                       : 32.0 Kbps\r\nChannel(s)                     : 2 channels\r\nChannel positions              : Front: L R\r\nSampling rate                  : 48.0 KHz\r\nStream size                    : 29.7 MiB (6%)\r\nLanguage                       : English\r\n\r\nSubtitle                       : Yes (English)\r\nSource                         : 720p.BluRay.x264-SPARKS\r\n\r\nScreenshots:\r\n \nhttp://ititli.com/LD \nhttp://ititli.com/La \nhttp://ititli.com/Lb \nhttp://ititli.com/Lz \nhttp://ititli.com/LI \nhttp://ititli.com/LO \nhttp://ititli.com/d9 \nhttp://ititli.com/dX \nhttp://ititli.com/dq \nhttp://ititli.com/dr \nhttp://ititli.com/d1 \nhttp://ititli.com/dT\r\n\r\n----------------------------------------------------------------------------------------------------\r\n\r\n\r\nEncoder Notes: Looking For Early Access To Anything You Can Provide DVDScr, R5, DVDR, BluRay, Direct\r\nAudio, Music Releases and Seedboxes. If You Got anything to offer please contact us.\r\n\r\nSupport us by donating BC - 1FgwdzPsd1y25Gea8wP1qni35uGCtmkRCD\r\n\r\nFace book Fan Page","torrent":{"xt":"urn:btih:d7bf823d76dd23ec00bec2b5d35bdf9bdf2dae9b","amp;dn":"Tomorrowland.2015.BRRip.480p.x264.AAC-VYTO+%5BP2PDL%5D","amp;tr":["udp%3A%2F%2Ftracker.leechers-paradise.org%3A6969","udp%3A%2F%2Fzer0day.ch%3A1337","udp%3A%2F%2Fopen.demonii.com%3A1337","udp%3A%2F%2Ftracker.coppersurfer.tk%3A6969","udp%3A%2F%2Fexodus.desync.com%3A6969"],"infoHash":"d7bf823d76dd23ec00bec2b5d35bdf9bdf2dae9b","infoHashBuffer":{"type":"Buffer","data":[215,191,130,61,118,221,35,236,0,190,194,181,211,91,223,155,223,45,174,155]},"announce":[],"urlList":[]}}